PathFileType	4	(X/Y/Z)	C:/Users/opensim2020/Desktop/walking_exp_matlab/subject01_walking04_straight_02.trc	
DataRate	CameraRate	NumFrames	NumMarkers	Units	OrigDataRate	OrigDataStartFrame	OrigNumFrames	
100.00	100.00	6	43	mm	100.00	1646	261	
Frame#	Time	LFHD			RFHD			LBHD			RBHD			C7			T10			CLAV			STRN			RBAK			LSHO			LUPA			LELB			LFRM			LWRA			LWRB			LFIN			RSHO			RUPA			RELB			RFRM			RWRA			RWRB			RFIN			LASI			RASI			LPSI			RPSI			LTHI			LKNE			LTIB			LANK			LHEE			LTOE			RTHI			RKNE			RTIB			RANK			RHEE			RTOE			*39			*40			*41			*42			
		X1	Y1	Z1	X2	Y2	Z2	X3	Y3	Z3	X4	Y4	Z4	X5	Y5	Z5	X6	Y6	Z6	X7	Y7	Z7	X8	Y8	Z8	X9	Y9	Z9	X10	Y10	Z10	X11	Y11	Z11	X12	Y12	Z12	X13	Y13	Z13	X14	Y14	Z14	X15	Y15	Z15	X16	Y16	Z16	X17	Y17	Z17	X18	Y18	Z18	X19	Y19	Z19	X20	Y20	Z20	X21	Y21	Z21	X22	Y22	Z22	X23	Y23	Z23	X24	Y24	Z24	X25	Y25	Z25	X26	Y26	Z26	X27	Y27	Z27	X28	Y28	Z28	X29	Y29	Z29	X30	Y30	Z30	X31	Y31	Z31	X32	Y32	Z32	X33	Y33	Z33	X34	Y34	Z34	X35	Y35	Z35	X36	Y36	Z36	X37	Y37	Z37	X38	Y38	Z38	X39	Y39	Z39	X40	Y40	Z40	X41	Y41	Z41	X42	Y42	Z42	X43	Y43	Z43	

229	2.280	1518.24683	-517.29169	1646.14026	1404.24475	-533.25775	1645.30127	1510.03210	-395.83771	1615.74670	1389.00757	-409.09772	1614.83923	1473.75122	-338.33240	1415.82068	1461.34302	-306.04340	1120.30042	1473.56897	-482.30273	1346.97217	1483.14502	-527.12128	1194.26367	1396.72205	-286.89474	1217.36511	1634.36963	-421.25903	1378.80847	1726.37341	-418.91156	1197.29553	1739.62402	-445.59979	1045.91553	1762.78760	-546.68762	987.26788	1745.45081	-682.74744	960.39398	1765.87219	-645.82056	917.51642	1778.95117	-727.37769	900.16028	1320.60547	-419.69525	1372.76050	1224.89270	-340.01431	1178.68860	1221.84912	-323.83878	1057.24683	1187.97034	-325.87894	938.52405	1199.68384	-379.79346	806.64978	1163.93713	-335.59915	818.13177	1163.17114	-355.46411	733.70618	1584.48950	-475.32959	916.69019	1368.41833	-500.39792	917.08258	1507.01538	-295.73260	929.96100	1363.73706	-314.52151	925.83002	1622.70239	-371.17905	591.83325	1602.40063	-327.33420	461.22256	1602.10828	-215.72763	305.37384	1538.64490	-116.71349	109.43011	1485.37048	-65.72015	100.52166	1534.12610	-244.59758	30.99569	1311.26343	-520.69287	589.32782	1349.04333	-577.23547	447.20184	1347.24500	-583.51501	272.36923	1399.21790	-639.00171	71.58693	1452.97949	-607.26141	25.32241	1399.36182	-784.90704	75.17160	1425.78162	-524.46161	1681.03540	-3101.93799	1973.15869	1023.35223	-3140.54517	2012.57690	1022.01563			 
230	2.290	1516.35571	-526.90240	1645.41833	1402.28821	-543.00684	1644.52112	1508.01892	-405.51129	1614.71558	1386.73962	-418.98883	1613.73169	1471.92981	-348.40784	1414.66528	1460.41150	-317.55179	1118.73853	1471.76917	-492.81213	1346.03308	1481.81628	-538.28052	1193.71582	1395.59131	-297.91299	1215.49927	1632.56628	-431.56641	1378.22363	1724.82581	-428.17935	1196.72937	1738.26587	-454.21509	1045.22900	1761.37866	-555.76642	987.20691	1744.11194	-692.07050	961.61780	1764.46814	-655.52118	918.32825	1777.53076	-737.38849	901.90881	1318.79346	-429.87268	1371.38196	1223.87708	-349.94473	1177.09167	1221.10864	-333.73074	1055.69836	1187.36121	-335.32715	937.02258	1198.99695	-388.83099	804.95654	1163.38660	-344.52829	816.52142	1162.74634	-363.99442	731.99622	1584.06201	-487.43585	915.66992	1367.83740	-512.64844	916.24622	1506.43347	-307.70383	929.09729	1363.04773	-326.54108	924.54742	1622.74463	-382.29977	590.74231	1602.84460	-337.89197	460.34610	1602.96667	-223.13580	306.63232	1540.24683	-119.47810	112.69077	1487.22913	-68.18861	105.45932	1534.38220	-245.04510	31.04087	1312.28796	-533.42834	588.39838	1349.73828	-588.92340	445.73679	1348.94995	-591.93115	270.56216	1401.09814	-643.43536	70.54119	1454.37646	-608.01477	25.52734	1401.72583	-788.49738	66.43285	1423.82129	-534.11066	1680.20422	-3101.94141	1973.19617	1023.29358	-3140.69238	2012.59924	1022.03241			 
231	2.300	1514.35828	-536.64783	1645.10767	1400.25464	-552.81561	1644.14905	1505.90063	-415.31143	1613.95764	1384.93250	-428.76477	1612.82727	1469.83655	-358.37869	1413.62195	1459.34937	-329.13763	1117.40063	1469.90405	-503.40872	1345.37109	1480.43652	-549.42023	1193.49768	1394.46313	-308.97766	1213.82031	1630.69324	-441.90836	1377.81995	1723.26501	-437.47464	1196.24792	1736.80334	-462.68039	1044.50793	1759.97144	-564.62952	987.08112	1742.76428	-701.03741	962.41473	1763.05627	-664.86499	918.80115	1776.12512	-746.92273	903.11249	1316.69580	-440.36447	1370.07556	1222.85706	-359.98050	1175.46606	1220.18628	-343.82883	1054.14197	1186.62512	-345.04416	935.41705	1198.31982	-398.18625	803.22864	1162.91919	-353.72324	814.95715	1162.31226	-372.95981	730.36902	1583.55188	-499.69962	914.68536	1367.67615	-524.10248	915.23499	1505.95593	-319.67917	928.37134	1362.13489	-338.59720	923.43866	1622.70947	-393.82086	589.59827	1603.01013	-349.08154	459.21387	1603.72351	-231.25990	307.95987	1542.37878	-122.58125	116.56053	1489.51001	-71.09882	110.96900	1534.61389	-245.72284	31.12052	1313.23853	-545.84851	588.32648	1350.14783	-600.92175	444.82990	1350.96533	-600.68121	270.44894	1402.31396	-646.59918	70.35377	1455.10730	-609.09857	26.70744	1402.54993	-791.83179	58.28926	1421.70520	-543.70422	1679.66357	-3101.89526	1973.20508	1023.44598	-3140.65771	2012.52576	1021.97522			 
232	2.310	1512.16882	-546.50238	1645.51367	1397.97839	-562.71216	1644.24426	1503.74231	-425.29288	1613.90796	1382.76282	-438.76755	1612.51721	1467.78210	-368.57849	1413.24939	1458.39124	-340.83179	1116.71912	1468.05066	-513.85468	1345.22095	1478.93970	-560.33258	1193.71204	1393.48425	-320.02551	1212.71106	1628.95044	-452.15375	1377.67432	1721.58911	-446.85593	1195.83716	1735.25623	-471.07867	1043.87744	1758.50781	-573.22913	986.77094	1741.35486	-709.71643	962.80304	1761.60022	-673.87628	918.99219	1774.70300	-756.01672	903.87939	1314.63513	-450.57147	1369.07690	1221.73022	-370.29169	1174.00146	1219.37573	-354.11508	1052.67017	1185.91357	-354.91238	933.89777	1197.64343	-407.81720	801.53894	1162.35083	-363.48856	813.28198	1161.80811	-382.27789	728.79987	1582.95264	-511.91904	913.83069	1367.07263	-536.11450	914.88440	1505.55481	-331.63986	927.74500	1361.25305	-350.65170	922.61157	1622.44641	-405.93018	588.56256	1603.09375	-360.87128	458.26932	1604.47900	-240.11487	309.51031	1544.63281	-126.36024	120.79998	1492.14343	-74.63709	117.19992	1535.00537	-245.97169	31.04624	1313.84778	-558.21545	589.42432	1351.00293	-613.54730	445.79880	1351.67090	-609.89136	270.85825	1402.14160	-650.76447	70.79005	1454.83643	-610.82062	28.09211	1402.78882	-794.99506	51.96010	1419.40613	-553.32343	1679.62048	-3101.91846	1973.03699	1023.76086	-3140.61499	2012.53271	1021.89484			 
233	2.320	1509.78125	-556.53778	1646.18506	1395.72070	-572.86932	1644.68750	1501.45215	-435.40372	1614.43066	1380.42981	-448.98682	1612.74988	1465.82886	-379.12653	1413.35718	1457.76697	-352.48776	1116.49170	1466.15930	-524.13489	1345.57092	1477.35657	-571.35114	1194.27393	1392.38635	-330.87543	1212.14050	1627.34314	-462.40338	1377.79529	1719.86157	-456.30884	1195.74475	1733.62195	-479.44867	1043.50269	1757.03369	-581.64404	986.44550	1739.88904	-718.03552	962.80121	1760.05615	-682.33875	918.79175	1773.17529	-764.56543	904.11633	1312.65698	-460.94818	1368.49292	1220.57861	-380.75302	1172.81165	1218.45825	-364.76041	1051.35461	1185.17346	-365.16309	932.47711	1196.99158	-417.90161	800.19904	1161.95251	-373.23367	811.85687	1161.32373	-391.92551	727.61255	1582.32202	-524.19659	913.19580	1366.51941	-548.21130	914.86908	1505.37036	-343.66916	927.30505	1360.67004	-362.28317	922.73010	1622.05835	-418.64215	587.77075	1603.24243	-373.53497	457.39368	1605.22424	-249.53087	311.36624	1546.62793	-130.85149	125.36469	1494.33191	-79.20921	123.96711	1535.28125	-246.52917	31.30924	1314.16052	-570.78510	590.72223	1351.40686	-625.77179	447.33154	1351.04114	-619.93451	272.10974	1401.55823	-654.40436	70.53143	1454.12476	-612.71368	29.70078	1402.70996	-797.72589	45.90709	1417.01062	-563.19537	1680.14209	-3101.88843	1973.19299	1023.35333	-3140.70410	2012.59277	1022.06738			 
234	2.330	1507.51758	-566.64136	1646.90979	1393.47131	-583.11377	1645.23181	1499.05176	-445.56070	1615.14905	1377.87976	-459.36887	1613.26648	1463.97229	-389.83762	1413.77222	1457.16980	-364.02994	1116.51440	1464.40454	-534.50397	1346.42468	1475.76208	-582.68481	1195.21301	1391.10730	-341.56476	1212.09644	1625.81152	-472.77115	1378.26501	1718.06702	-465.76791	1196.09387	1732.02148	-487.73367	1043.56641	1755.44604	-589.73932	986.19769	1738.32300	-725.96509	962.37750	1758.41394	-690.29364	918.34119	1771.58069	-772.54181	903.87225	1310.78674	-471.15195	1368.18896	1219.46606	-391.44400	1171.91577	1217.64539	-375.67337	1050.39734	1184.55261	-375.79700	931.46826	1196.20935	-428.73401	799.23688	1161.37805	-383.67435	810.71161	1160.78149	-402.24362	726.73035	1581.73474	-536.36676	912.92993	1366.01978	-560.22583	915.42468	1505.49988	-355.73151	927.11578	1360.43665	-374.52658	923.58875	1621.71411	-432.20410	587.20142	1603.60522	-387.02188	456.77109	1606.08179	-259.68689	313.68564	1548.65479	-136.08392	130.53189	1496.27966	-84.86739	131.31914	1535.54260	-246.95908	31.17313	1314.22705	-583.72668	592.25122	1350.96277	-637.90582	448.40762	1349.76331	-629.53662	273.17084	1400.82178	-657.50006	70.42355	1453.03845	-614.19708	30.87594	1403.37744	-800.03522	40.66891	1414.56775	-573.43018	1680.81140	-3101.91504	1973.21033	1023.43011	-3140.55518	2012.49878	1022.05658			 
